<?xml version="1.0" standalone="no"?><!DOCTYPE svg PUBLIC "-//W3C//DTD SVG 1.1//EN" "http://www.w3.org/Graphics/SVG/1.1/DTD/svg11.dtd"><svg t="1608277068117" class="icon" viewBox="0 0 1024 1024" version="1.1" xmlns="http://www.w3.org/2000/svg" p-id="3872" xmlns:xlink="http://www.w3.org/1999/xlink" width="200" height="200"><defs><style type="text/css"></style></defs><path d="M511 962.4c-60.34 0-118.88-11.82-174.01-35.14-53.24-22.52-101.04-54.75-142.09-95.79s-73.28-88.85-95.79-142.09C75.79 634.25 63.97 575.7 63.97 515.36s11.82-118.88 35.14-174.01c22.52-53.24 54.75-101.04 95.79-142.09 41.05-41.05 88.85-73.28 142.09-95.79C392.12 80.15 450.66 68.33 511 68.33s118.88 11.82 174.01 35.14c53.24 22.52 101.04 54.75 142.09 95.79 41.05 41.05 73.28 88.85 95.79 142.09 23.32 55.13 35.14 113.68 35.14 174.01 0 60.34-11.82 118.88-35.14 174.01-22.52 53.24-54.75 101.04-95.79 142.09s-88.85 73.28-142.09 95.79C629.88 950.57 571.34 962.4 511 962.4z m0-844.07c-218.93 0-397.03 178.11-397.03 397.03S292.07 912.4 511 912.4s397.03-178.11 397.03-397.03S729.93 118.33 511 118.33z" fill="#565656" p-id="3873"></path><path d="M677.33 541.57H344.06c-13.81 0-25-11.19-25-25s11.19-25 25-25h333.27c13.81 0 25 11.19 25 25s-11.19 25-25 25z" fill="#565656" p-id="3874"></path></svg>